{
  "accessors": [
    {
      "bufferView": 2,
      "componentType": 5126,
      "count": 65532,
      "max": [
        0.2591993510723114,
        0.12581229209899902,
        0.73408663272857666
      ],
      "min": [
        -0.38679900765419006,
        -0.23469457030296326,
        -0.98530232906341553
      ],
      "type": "VEC3"
    },
    {
      "bufferView": 2,
      "byteOffset": 786384,
      "componentType": 5126,
      "count": 65532,
      "max": [
        0.99996465444564819,
        0.99997293949127197,
        0.99983757734298706
      ],
      "min": [
        -0.9999966025352478,
        -0.99999105930328369,
        -0.99995654821395874
      ],
      "type": "VEC3"
    },
    {
      "bufferView": 3,
      "componentType": 5126,
      "count": 65532,
      "max": [
        0.99996960163116455,
        0.99999892711639404,
        0.9999995231628418,
        1
      ],
      "min": [
        -0.99999964237213135,
        -0.99999690055847168,
        -0.99998313188552856,
        -1
      ],
      "type": "VEC4"
    },
    {
      "bufferView": 1,
      "componentType": 5126,
      "count": 65532,
      "max": [
        0.979736328125,
        0.999267578125
      ],
      "min": [
        0.000732421875,
        0.059326171875
      ],
      "type": "VEC2"
    },
    {
      "bufferView": 0,
      "componentType": 5125,
      "count": 252876,
      "max": [
        65531
      ],
      "min": [
        0
      ],
      "type": "SCALAR"
    },
    {
      "bufferView": 2,
      "byteOffset": 1572768,
      "componentType": 5126,
      "count": 65532,
      "max": [
        0.24162128567695618,
        0.16829800605773926,
        0.72839993238449097
      ],
      "min": [
        -0.41781395673751831,
        -0.23272114992141724,
        -0.98834407329559326
      ],
      "type": "VEC3"
    },
    {
      "bufferView": 2,
      "byteOffset": 2359152,
      "componentType": 5126,
      "count": 65532,
      "max": [
        0.99996465444564819,
        0.99999439716339111,
        0.99938136339187622
      ],
      "min": [
        -0.99995905160903931,
        -0.99997496604919434,
        -0.99999052286148071
      ],
      "type": "VEC3"
    },
    {
      "bufferView": 3,
      "byteOffset": 1048512,
      "componentType": 5126,
      "count": 65532,
      "max": [
        0.99999868869781494,
        0.99999701976776123,
        0.9999997615814209,
        1
      ],
      "min": [
        -0.99999940395355225,
        -0.99999916553497314,
        -0.99994498491287231,
        -1
      ],
      "type": "VEC4"
    },
    {
      "bufferView": 1,
      "byteOffset": 524256,
      "componentType": 5126,
      "count": 65532,
      "max": [
        0.952392578125,
        0.971923828125
      ],
      "min": [
        0.024169921875,
        0.086669921875
      ],
      "type": "VEC2"
    },
    {
      "bufferView": 0,
      "byteOffset": 1011504,
      "componentType": 5125,
      "count": 179925,
      "max": [
        65531
      ],
      "min": [
        0
      ],
      "type": "SCALAR"
    },
    {
      "bufferView": 2,
      "byteOffset": 3145536,
      "componentType": 5126,
      "count": 65532,
      "max": [
        0.32732021808624268,
        0.23227852582931519,
        0.7378004789352417
      ],
      "min": [
        -0.40450552105903625,
        -0.0070161819458007812,
        -0.94302487373352051
      ],
      "type": "VEC3"
    },
    {
      "bufferView": 2,
      "byteOffset": 3931920,
      "componentType": 5126,
      "count": 65532,
      "max": [
        0.99998188018798828,
        0.99999833106994629,
        0.99976152181625366
      ],
      "min": [
        -0.99979108572006226,
        -0.99998342990875244,
        -1
      ],
      "type": "VEC3"
    },
    {
      "bufferView": 3,
      "byteOffset": 2097024,
      "componentType": 5126,
      "count": 65532,
      "max": [
        1,
        0.99999785423278809,
        0.99999618530273438,
        1
      ],
      "min": [
        -1,
        -1,
        -0.99992656707763672,
        -1
      ],
      "type": "VEC4"
    },
    {
      "bufferView": 1,
      "byteOffset": 1048512,
      "componentType": 5126,
      "count": 65532,
      "max": [
        0.901611328125,
        0.921142578125
      ],
      "min": [
        0.078857421875,
        0.137451171875
      ],
      "type": "VEC2"
    },
    {
      "bufferView": 0,
      "byteOffset": 1731204,
      "componentType": 5125,
      "count": 150453,
      "max": [
        65531
      ],
      "min": [
        0
      ],
      "type": "SCALAR"
    },
    {
      "bufferView": 2,
      "byteOffset": 4718304,
      "componentType": 5126,
      "count": 7339,
      "max": [
        0.25535681843757629,
        0.18258923292160034,
        0.73754972219467163
      ],
      "min": [
        -0.048380665481090546,
        -0.06372535228729248,
        0.3521212637424469
      ],
      "type": "VEC3"
    },
    {
      "bufferView": 2,
      "byteOffset": 4806372,
      "componentType": 5126,
      "count": 7339,
      "max": [
        0.99993842840194702,
        0.9959450364112854,
        0.99980473518371582
      ],
      "min": [
        -0.99972999095916748,
        -0.99968361854553223,
        -0.99942547082901001
      ],
      "type": "VEC3"
    },
    {
      "bufferView": 3,
      "byteOffset": 3145536,
      "componentType": 5126,
      "count": 7339,
      "max": [
        0.99993836879730225,
        0.99980872869491577,
        0.99998617172241211,
        1
      ],
      "min": [
        -0.99997591972351074,
        -0.99999505281448364,
        -0.9999549388885498,
        -1
      ],
      "type": "VEC4"
    },
    {
      "bufferView": 1,
      "byteOffset": 1572768,
      "componentType": 5126,
      "count": 7339,
      "max": [
        0.827392578125,
        0.846923828125
      ],
      "min": [
        0.149169921875,
        0.207763671875
      ],
      "type": "VEC2"
    },
    {
      "bufferView": 0,
      "byteOffset": 2333016,
      "componentType": 5125,
      "count": 16737,
      "max": [
        7338
      ],
      "min": [
        0
      ],
      "type": "SCALAR"
    }
  ],
  "asset": {
    "extras": {
      "author": "itSeez3D (https://sketchfab.com/itseez3d)",
      "license": "CC-BY-NC-4.0 (http://creativecommons.org/licenses/by-nc/4.0/)",
      "source": "https://sketchfab.com/models/ce18b0f58cba47e2b1f34a50ea31c348",
      "title": "Zhenya"
    },
    "generator": "Sketchfab-3.29.3",
    "version": "2.0"
  },
  "bufferViews": [
    {
      "buffer": 0,
      "byteLength": 2399964,
      "byteOffset": 0,
      "name": "floatBufferViews",
      "target": 34963
    },
    {
      "buffer": 0,
      "byteLength": 1631480,
      "byteOffset": 2399964,
      "byteStride": 8,
      "name": "floatBufferViews",
      "target": 34962
    },
    {
      "buffer": 0,
      "byteLength": 4894440,
      "byteOffset": 4031444,
      "byteStride": 12,
      "name": "floatBufferViews",
      "target": 34962
    },
    {
      "buffer": 0,
      "byteLength": 3262960,
      "byteOffset": 8925884,
      "byteStride": 16,
      "name": "floatBufferViews",
      "target": 34962
    }
  ],
  "buffers": [
    {
      "byteLength": 12188844,
      "uri": "scene.bin"
    }
  ],
  "extensionsUsed": [
    "KHR_materials_unlit"
  ],
  "images": [
    {
      "uri": "textures/material_0_baseColor.jpg"
    }
  ],
  "materials": [
    {
      "doubleSided": true,
      "emissiveFactor": [
        0,
        0,
        0
      ],
      "extensions": {
        "KHR_materials_unlit": {}
      },
      "name": "material_0",
      "pbrMetallicRoughness": {
        "baseColorFactor": [
          1,
          1,
          1,
          1
        ],
        "baseColorTexture": {
          "index": 0,
          "texCoord": 0
        },
        "metallicFactor": 0,
        "roughnessFactor": 1
      }
    }
  ],
  "meshes": [
    {
      "primitives": [
        {
          "attributes": {
            "NORMAL": 1,
            "POSITION": 0,
            "TANGENT": 2,
            "TEXCOORD_0": 3
          },
          "indices": 4,
          "material": 0,
          "mode": 4
        }
      ]
    },
    {
      "primitives": [
        {
          "attributes": {
            "NORMAL": 6,
            "POSITION": 5,
            "TANGENT": 7,
            "TEXCOORD_0": 8
          },
          "indices": 9,
          "material": 0,
          "mode": 4
        }
      ]
    },
    {
      "primitives": [
        {
          "attributes": {
            "NORMAL": 11,
            "POSITION": 10,
            "TANGENT": 12,
            "TEXCOORD_0": 13
          },
          "indices": 14,
          "material": 0,
          "mode": 4
        }
      ]
    },
    {
      "primitives": [
        {
          "attributes": {
            "NORMAL": 16,
            "POSITION": 15,
            "TANGENT": 17,
            "TEXCOORD_0": 18
          },
          "indices": 19,
          "material": 0,
          "mode": 4
        }
      ]
    }
  ],
  "nodes": [
    {
      "children": [
        1
      ],
      "name": "RootNode (gltf orientation matrix)",
      "rotation": [
        -0.70710678118654746,
        -0,
        -0,
        0.70710678118654757
      ]
    },
    {
      "children": [
        2
      ],
      "name": "RootNode (model correction matrix)"
    },
    {
      "children": [
        3,
        4,
        5,
        6
      ],
      "name": "model_mesh.obj.cleaner"
    },
    {
      "mesh": 0,
      "name": ""
    },
    {
      "mesh": 1,
      "name": ""
    },
    {
      "mesh": 2,
      "name": ""
    },
    {
      "mesh": 3,
      "name": ""
    }
  ],
  "samplers": [
    {
      "magFilter": 9729,
      "minFilter": 9987,
      "wrapS": 10497,
      "wrapT": 10497
    }
  ],
  "scene": 0,
  "scenes": [
    {
      "name": "OSG_Scene",
      "nodes": [
        0
      ]
    }
  ],
  "textures": [
    {
      "sampler": 0,
      "source": 0
    }
  ]
}

