{
  "accessors": [
    {
      "bufferView": 2,
      "componentType": 5126,
      "count": 65532,
      "max": [
        0.2931554913520813,
        0.22948384284973145,
        0.92717397212982178
      ],
      "min": [
        -0.24974744021892548,
        -0.26159822940826416,
        -0.87794429063796997
      ],
      "type": "VEC3"
    },
    {
      "bufferView": 2,
      "byteOffset": 786384,
      "componentType": 5126,
      "count": 65532,
      "max": [
        0.99999827146530151,
        0.99999010562896729,
        0.99987483024597168
      ],
      "min": [
        -0.99999862909317017,
        -0.99999696016311646,
        -0.99999046325683594
      ],
      "type": "VEC3"
    },
    {
      "bufferView": 3,
      "componentType": 5126,
      "count": 65532,
      "max": [
        0.99989348649978638,
        0.9999656081199646,
        0.99972647428512573,
        1
      ],
      "min": [
        -0.99998956918716431,
        -0.99988442659378052,
        -0.9999997615814209,
        -1
      ],
      "type": "VEC4"
    },
    {
      "bufferView": 1,
      "componentType": 5126,
      "count": 65532,
      "max": [
        0.5640869140625,
        0.9996337890625
      ],
      "min": [
        0.0003662109375,
        0.4652099609375
      ],
      "type": "VEC2"
    },
    {
      "bufferView": 0,
      "componentType": 5125,
      "count": 308952,
      "max": [
        65531
      ],
      "min": [
        0
      ],
      "type": "SCALAR"
    },
    {
      "bufferView": 2,
      "byteOffset": 1572768,
      "componentType": 5126,
      "count": 65532,
      "max": [
        0.29135787487030029,
        0.23192059993743896,
        0.67750191688537598
      ],
      "min": [
        -0.23049692809581757,
        -0.076474368572235107,
        -0.87775510549545288
      ],
      "type": "VEC3"
    },
    {
      "bufferView": 2,
      "byteOffset": 2359152,
      "componentType": 5126,
      "count": 65532,
      "max": [
        0.99999862909317017,
        0.99999827146530151,
        0.99943262338638306
      ],
      "min": [
        -0.99999868869781494,
        -0.99979221820831299,
        -0.99831259250640869
      ],
      "type": "VEC3"
    },
    {
      "bufferView": 3,
      "byteOffset": 1048512,
      "componentType": 5126,
      "count": 65532,
      "max": [
        0.99990832805633545,
        0.99998742341995239,
        0.99979698657989502,
        1
      ],
      "min": [
        -0.99999010562896729,
        -0.99996012449264526,
        -0.99999922513961792,
        -1
      ],
      "type": "VEC4"
    },
    {
      "bufferView": 1,
      "byteOffset": 524256,
      "componentType": 5126,
      "count": 65532,
      "max": [
        0.5601806640625,
        0.9937744140625
      ],
      "min": [
        0.0042724609375,
        0.4691162109375
      ],
      "type": "VEC2"
    },
    {
      "bufferView": 0,
      "byteOffset": 1235808,
      "componentType": 5125,
      "count": 253548,
      "max": [
        65531
      ],
      "min": [
        0
      ],
      "type": "SCALAR"
    },
    {
      "bufferView": 2,
      "byteOffset": 3145536,
      "componentType": 5126,
      "count": 17542,
      "max": [
        0.02218538336455822,
        0.228751540184021,
        -0.46906334161758423
      ],
      "min": [
        -0.18494455516338348,
        -0.020202577114105225,
        -0.86619466543197632
      ],
      "type": "VEC3"
    },
    {
      "bufferView": 2,
      "byteOffset": 3356040,
      "componentType": 5126,
      "count": 17542,
      "max": [
        0.99996602535247803,
        0.99851226806640625,
        0.98592931032180786
      ],
      "min": [
        -0.99996840953826904,
        -0.99973088502883911,
        -0.99631226062774658
      ],
      "type": "VEC3"
    },
    {
      "bufferView": 3,
      "byteOffset": 2097024,
      "componentType": 5126,
      "count": 17542,
      "max": [
        0.98638814687728882,
        0.99968767166137695,
        0.99997180700302124,
        1
      ],
      "min": [
        -0.99999010562896729,
        -0.9999845027923584,
        -0.99997115135192871,
        -1
      ],
      "type": "VEC4"
    },
    {
      "bufferView": 1,
      "byteOffset": 1048512,
      "componentType": 5126,
      "count": 17542,
      "max": [
        0.5484619140625,
        0.9820556640625
      ],
      "min": [
        0.0159912109375,
        0.4808349609375
      ],
      "type": "VEC2"
    },
    {
      "bufferView": 0,
      "byteOffset": 2250000,
      "componentType": 5125,
      "count": 37500,
      "max": [
        17541
      ],
      "min": [
        0
      ],
      "type": "SCALAR"
    }
  ],
  "asset": {
    "extras": {
      "author": "itSeez3D (https://sketchfab.com/itseez3d)",
      "license": "CC-BY-NC-4.0 (http://creativecommons.org/licenses/by-nc/4.0/)",
      "source": "https://sketchfab.com/models/111b29a1b2914a20979572f137e538db",
      "title": "Alexey"
    },
    "generator": "Sketchfab-3.29.3",
    "version": "2.0"
  },
  "bufferViews": [
    {
      "buffer": 0,
      "byteLength": 2400000,
      "byteOffset": 0,
      "name": "floatBufferViews",
      "target": 34963
    },
    {
      "buffer": 0,
      "byteLength": 1188848,
      "byteOffset": 2400000,
      "byteStride": 8,
      "name": "floatBufferViews",
      "target": 34962
    },
    {
      "buffer": 0,
      "byteLength": 3566544,
      "byteOffset": 3588848,
      "byteStride": 12,
      "name": "floatBufferViews",
      "target": 34962
    },
    {
      "buffer": 0,
      "byteLength": 2377696,
      "byteOffset": 7155392,
      "byteStride": 16,
      "name": "floatBufferViews",
      "target": 34962
    }
  ],
  "buffers": [
    {
      "byteLength": 9533088,
      "uri": "scene.bin"
    }
  ],
  "extensionsUsed": [
    "KHR_materials_unlit"
  ],
  "images": [
    {
      "uri": "textures/material_0_baseColor.jpg"
    }
  ],
  "materials": [
    {
      "doubleSided": true,
      "emissiveFactor": [
        0,
        0,
        0
      ],
      "extensions": {
        "KHR_materials_unlit": {}
      },
      "name": "material_0",
      "pbrMetallicRoughness": {
        "baseColorFactor": [
          1,
          1,
          1,
          1
        ],
        "baseColorTexture": {
          "index": 0,
          "texCoord": 0
        },
        "metallicFactor": 0,
        "roughnessFactor": 1
      }
    }
  ],
  "meshes": [
    {
      "primitives": [
        {
          "attributes": {
            "NORMAL": 1,
            "POSITION": 0,
            "TANGENT": 2,
            "TEXCOORD_0": 3
          },
          "indices": 4,
          "material": 0,
          "mode": 4
        }
      ]
    },
    {
      "primitives": [
        {
          "attributes": {
            "NORMAL": 6,
            "POSITION": 5,
            "TANGENT": 7,
            "TEXCOORD_0": 8
          },
          "indices": 9,
          "material": 0,
          "mode": 4
        }
      ]
    },
    {
      "primitives": [
        {
          "attributes": {
            "NORMAL": 11,
            "POSITION": 10,
            "TANGENT": 12,
            "TEXCOORD_0": 13
          },
          "indices": 14,
          "material": 0,
          "mode": 4
        }
      ]
    }
  ],
  "nodes": [
    {
      "children": [
        1
      ],
      "name": "RootNode (gltf orientation matrix)",
      "rotation": [
        -0.70710678118654746,
        -0,
        -0,
        0.70710678118654757
      ]
    },
    {
      "children": [
        2
      ],
      "name": "RootNode (model correction matrix)"
    },
    {
      "children": [
        3,
        4,
        5
      ],
      "name": "model_mesh.obj.cleaner"
    },
    {
      "mesh": 0,
      "name": ""
    },
    {
      "mesh": 1,
      "name": ""
    },
    {
      "mesh": 2,
      "name": ""
    }
  ],
  "samplers": [
    {
      "magFilter": 9729,
      "minFilter": 9987,
      "wrapS": 10497,
      "wrapT": 10497
    }
  ],
  "scene": 0,
  "scenes": [
    {
      "name": "OSG_Scene",
      "nodes": [
        0
      ]
    }
  ],
  "textures": [
    {
      "sampler": 0,
      "source": 0
    }
  ]
}

